<svg width="81" height="54" viewBox="0 0 81 54" fill="none" xmlns="http://www.w3.org/2000/svg">
<path d="M24.3368 49.3861C22.8995 49.3861 21.8262 49.0128 21.1168 48.2661C20.4168 47.5101 20.0668 46.3434 20.0668 44.7661C20.0668 43.1421 20.4168 41.9568 21.1168 41.2101C21.8168 40.4634 22.8902 40.0901 24.3368 40.0901C25.7835 40.0901 26.8568 40.4634 27.5568 41.2101C28.2568 41.9568 28.6068 43.1421 28.6068 44.7661C28.6068 46.3434 28.2522 47.5101 27.5428 48.2661C26.8428 49.0128 25.7742 49.3861 24.3368 49.3861ZM24.3368 48.0981C25.2888 48.0981 25.9842 47.8368 26.4228 47.3141C26.8615 46.7914 27.0808 45.9421 27.0808 44.7661C27.0808 43.5434 26.8615 42.6754 26.4228 42.1621C25.9935 41.6488 25.2982 41.3921 24.3368 41.3921C23.3848 41.3921 22.6895 41.6488 22.2508 42.1621C21.8215 42.6754 21.6068 43.5434 21.6068 44.7661C21.6068 45.9328 21.8262 46.7821 22.2648 47.3141C22.7035 47.8368 23.3942 48.0981 24.3368 48.0981ZM30.1086 42.6101H31.5086L31.5786 43.3101C31.8959 43.0581 32.2646 42.8574 32.6846 42.7081C33.1046 42.5494 33.5526 42.4701 34.0286 42.4701C34.8872 42.4701 35.5126 42.6708 35.9046 43.0721C36.2966 43.4734 36.4926 44.0988 36.4926 44.9481V49.2461H34.9806V45.0181C34.9806 44.5048 34.8732 44.1454 34.6586 43.9401C34.4439 43.7348 34.0519 43.6321 33.4826 43.6321C33.1372 43.6321 32.7966 43.7021 32.4606 43.8421C32.1339 43.9821 31.8586 44.1641 31.6346 44.3881V49.2461H30.1086V42.6101ZM39.8543 49.3861C39.2943 49.3861 38.879 49.2508 38.6083 48.9801C38.3376 48.7094 38.2023 48.2708 38.2023 47.6641V39.8101H39.7283V47.5241C39.7283 47.7761 39.7703 47.9534 39.8543 48.0561C39.9476 48.1494 40.0923 48.1961 40.2883 48.1961C40.5123 48.1961 40.727 48.1681 40.9323 48.1121V49.2181C40.6243 49.3301 40.265 49.3861 39.8543 49.3861ZM42.3792 39.9641H44.0452V41.2241H42.3792V39.9641ZM42.5052 43.7721H41.4972L41.6372 42.6101H44.0312V49.2461H42.5052V43.7721ZM45.8039 42.6101H47.2039L47.2739 43.3101C47.5912 43.0581 47.9599 42.8574 48.3799 42.7081C48.7999 42.5494 49.2479 42.4701 49.7239 42.4701C50.5825 42.4701 51.2079 42.6708 51.5999 43.0721C51.9919 43.4734 52.1879 44.0988 52.1879 44.9481V49.2461H50.6759V45.0181C50.6759 44.5048 50.5685 44.1454 50.3539 43.9401C50.1392 43.7348 49.7472 43.6321 49.1779 43.6321C48.8325 43.6321 48.4919 43.7021 48.1559 43.8421C47.8292 43.9821 47.5539 44.1641 47.3299 44.3881V49.2461H45.8039V42.6101ZM57.2576 49.3861C56.0816 49.3861 55.181 49.0968 54.5556 48.5181C53.9303 47.9394 53.6176 47.0714 53.6176 45.9141C53.6176 44.8221 53.893 43.9774 54.4436 43.3801C54.9943 42.7734 55.811 42.4701 56.8936 42.4701C57.8736 42.4701 58.625 42.7268 59.1476 43.2401C59.6703 43.7534 59.9316 44.4394 59.9316 45.2981V46.5301H55.0736C55.1483 47.1648 55.377 47.6081 55.7596 47.8601C56.1423 48.1028 56.7443 48.2241 57.5656 48.2241C57.9016 48.2241 58.2423 48.1914 58.5876 48.1261C58.9423 48.0608 59.255 47.9768 59.5256 47.8741V48.9941C58.9376 49.2554 58.1816 49.3861 57.2576 49.3861ZM58.5876 45.5361V45.0741C58.5876 44.5981 58.457 44.2388 58.1956 43.9961C57.9343 43.7441 57.5143 43.6181 56.9356 43.6181C56.245 43.6181 55.7596 43.7674 55.4796 44.0661C55.209 44.3648 55.0736 44.8548 55.0736 45.5361H58.5876Z" fill="#B8B8B8"/>
<path d="M7.51015 31.474C6.15336 32.8315 1.45079 32.8315 0.0926107 31.474C-0.0760402 31.3055 0.0283125 10.7888 0.0742107 2.97512C0.0838972 1.3261 1.41947 0 3.06852 0H16.3824C25.5454 0 26.2651 22.7379 16.3824 22.7379H8.91622C7.67867 22.7379 7.50289 15.9505 8.91622 15.9505H14.9763C17.7399 15.9505 17.7748 7.71799 14.9763 7.71799H10.51C8.85314 7.71799 7.5283 9.05418 7.55182 10.7109C7.64165 17.0398 7.82139 31.1626 7.51015 31.474Z" fill="#D63135"/>
<path d="M34.9926 30.0551C34.9926 30.0551 30.5499 25.6128 32.623 16.7283C34.6961 7.84371 40.0268 8.43601 40.6191 8.43601C47.1345 8.43601 48.0225 15.5437 48.0229 16.7283C48.0233 17.9129 47.1345 24.7244 40.6191 24.7244C35.2884 24.7244 32.623 18.209 32.623 18.209C32.623 18.209 31.967 29.7743 36.7691 30.6474C38.5461 30.9705 42.4322 31.3437 45.6537 30.0551C50.096 28.2782 54.8324 23.4003 54.8344 16.7283C54.837 8.3851 49.7998 1.62451 40.6191 1.62451C31.4384 1.62451 26.4037 9.62063 26.4038 16.7283C26.404 26.5127 34.9926 30.0551 34.9926 30.0551Z" fill="#D63135"/>
<path d="M72.5503 9.72486C73.2157 8.06249 64.9039 3.07538 65.2359 10.7223C65.2511 11.0724 57.9214 9.14568 57.9214 6.06765C57.9214 4.73776 60.4726 1.59389 63.574 0.748067C67.2313 -0.249356 69.2255 -0.249355 72.5503 0.748068C75.2891 1.56971 76.8725 2.74291 78.2023 4.73776C79.0889 6.06765 72.0293 11.0263 72.5503 9.72486Z" fill="#D63135"/>
<path d="M65.2359 11.3872C65.2359 11.3872 57.9215 9.05991 57.5891 6.73259C56.5919 9.05991 57.3209 12.1717 58.9189 15.0444C61.7451 20.1251 71.2207 20.364 72.5503 21.029C76.8725 21.3614 79.8647 25.0186 79.8647 25.0186C81.1949 20.364 79.2001 16.7068 76.8725 15.0444C75.6626 14.1804 71.0135 12.5427 65.2359 11.3872Z" fill="#D63135"/>
<path d="M79.5327 25.6836C80.0005 24.9819 75.2108 21.029 72.5508 21.3614C72.0316 23.0493 72.2177 24.6862 70.8882 25.6836C69.5587 26.681 67.0093 26.3485 65.9011 25.6836C64.2387 24.6862 61.2464 22.0264 60.914 21.3614C60.6152 20.7639 56.8109 23.2651 56.2595 25.6836C56.0321 26.681 60.2491 31.0863 63.9064 32.0006C65.5687 32.4161 70.2235 32.998 73.2158 31.6681C76.4974 30.2096 78.2028 27.6784 79.5327 25.6836Z" fill="#D63135"/>
</svg>
